<svg width="160" height="160" viewBox="0 0 160 160" fill="none" xmlns="http://www.w3.org/2000/svg">
<g filter="url(#filter0_d_1313_1002)">
<rect x="50" y="26" width="60" height="60" fill="#F6F6F6"/>
</g>
<path d="M69.3703 54.472C65.5257 54.472 62.3596 57.7511 62.3596 61.5956V67.2496C62.3596 71.0941 65.5257 74.3734 69.3703 74.3734H82.1478C85.9924 74.3734 89.1585 71.0941 89.1585 67.2496V61.5956C89.1585 57.7511 85.9924 54.472 82.1478 54.472H69.3703ZM69.3703 57.4119H82.1478C84.5224 57.4119 86.3316 59.221 86.3316 61.5956V67.2496C86.3316 69.6241 84.5224 71.5464 82.1478 71.5464H69.3703C66.9957 71.5464 65.1865 69.6241 65.1865 67.2496V61.5956C65.1865 59.221 66.9957 57.4119 69.3703 57.4119Z" fill="#303030"/>
<path d="M70.8403 60.1257C70.388 60.239 70.0487 60.3516 69.8226 60.5781L66.9957 63.4051C66.4303 63.9705 66.4303 64.875 66.9957 65.4404L69.8226 68.2673C71.1795 69.6242 73.2149 67.589 71.858 66.232L69.9357 64.4227L71.858 62.6136C72.7626 61.709 72.0841 60.1259 70.8403 60.1259V60.1257ZM80.6779 60.1257C79.434 60.1257 78.7556 61.7088 79.6602 62.6134L81.5825 64.4226L79.6602 66.2317C78.4164 67.5886 80.3386 69.6241 81.6956 68.2672L84.5224 65.4402C85.0878 64.8748 85.0878 63.9703 84.5224 63.4049L81.6956 60.578C81.4694 60.352 81.1302 60.1255 80.6779 60.1255V60.1257Z" fill="#303030"/>
<path d="M75.0241 37.6235C71.1795 37.6235 68.0134 40.7896 68.0134 44.6342V55.9417C68.0134 57.8641 70.8403 57.8641 70.8403 55.9417V44.6342C70.8403 42.2596 72.6495 40.3374 75.0241 40.3374H90.6285C93.0031 40.3374 94.8123 42.2596 94.8123 44.6342V61.5955C94.8123 63.9701 93.0031 65.8925 90.6285 65.8925H87.8016C85.8793 65.8925 85.8793 68.7193 87.8016 68.7193H90.6285C94.4731 68.7193 97.6392 65.4401 97.6392 61.5955V44.6342C97.6392 40.7896 94.4731 37.6235 90.6285 37.6235H75.0241Z" fill="#303030"/>
<path d="M75.024 43.1641C73.2148 43.1641 73.2148 45.9911 75.024 45.9911H76.494C78.3032 45.9911 78.3032 43.1641 76.494 43.1641H75.024ZM82.1478 43.1641C80.2255 43.1641 80.2255 45.9911 82.1478 45.9911H90.6285C92.4377 45.9911 92.4377 43.1641 90.6285 43.1641H82.1478ZM89.1585 48.8179C87.3493 48.8179 87.3493 51.6448 89.1585 51.6448H90.6285C92.4377 51.6448 92.4377 48.8179 90.6285 48.8179H89.1585ZM77.8509 48.8179C76.0417 48.8179 76.0417 51.6448 77.8509 51.6448H83.5047C85.427 51.6448 85.427 48.8179 83.5047 48.8179H77.8509ZM76.381 60.1256C75.7025 60.2388 75.2502 60.691 75.1371 61.2563L73.6671 66.9101C72.9887 68.8324 76.0417 69.6238 76.381 67.5885L77.8509 61.9347C78.0771 61.0301 77.3986 60.1256 76.381 60.1256Z" fill="#303030"/>
<defs>
<filter id="filter0_d_1313_1002" x="0" y="0" width="160" height="160" filterUnits="userSpaceOnUse" color-interpolation-filters="sRGB">
<feFlood flood-opacity="0" result="BackgroundImageFix"/>
<feColorMatrix in="SourceAlpha" type="matrix" values="0 0 0 0 0 0 0 0 0 0 0 0 0 0 0 0 0 0 127 0" result="hardAlpha"/>
<feOffset dy="24"/>
<feGaussianBlur stdDeviation="25"/>
<feComposite in2="hardAlpha" operator="out"/>
<feColorMatrix type="matrix" values="0 0 0 0 0.0509804 0 0 0 0 0.0470588 0 0 0 0 0.219608 0 0 0 0.1 0"/>
<feBlend mode="normal" in2="BackgroundImageFix" result="effect1_dropShadow_1313_1002"/>
<feBlend mode="normal" in="SourceGraphic" in2="effect1_dropShadow_1313_1002" result="shape"/>
</filter>
</defs>
</svg>
