<svg width="1920" height="1080" viewBox="0 0 1920 1080" fill="none" xmlns="http://www.w3.org/2000/svg">
<g opacity="0.1" filter="url(#filter0_f_837_15)">
<ellipse cx="1730" cy="671.703" rx="360" ry="190.703" fill="#68F3F6"/>
</g>
<g opacity="0.1" filter="url(#filter1_f_837_15)">
<circle cx="23.5" cy="154.5" r="242.5" fill="#68F3F6"/>
</g>
<g opacity="0.1" filter="url(#filter2_f_837_15)">
<circle cx="1011.5" cy="1056.5" r="149.5" fill="#68F3F6"/>
</g>
<rect x="1080" width="840" height="1080" fill="#2E2F38"/>
<path opacity="0.05" d="M1690 350.032L1690 271.696L1702.67 271.696L1712.18 295.312L1763.15 274.864L1763.15 199.984L1712.18 179.536L1702.67 202.576L1690 202.576L1690 127.12L1702.67 127.12L1712.18 150.736L1893.33 221.584L1893.33 251.248L1712.18 324.976L1702.67 350.032L1690 350.032ZM1782.74 267.376L1863.66 236.848L1782.74 207.472L1782.74 267.376ZM1690 432.146L1690 356.402L1702.38 356.402L1711.89 380.594L1814.7 380.594L1814.7 356.402L1831.98 356.402C1835.63 363.89 1837.46 372.338 1837.46 381.746C1837.46 391.154 1835.44 397.682 1831.41 401.33C1827.38 404.978 1821.42 406.994 1813.55 407.378C1819.31 409.298 1824.5 413.234 1829.1 419.186C1834.67 426.29 1837.46 435.698 1837.46 447.41C1837.46 452.594 1836.78 457.49 1835.44 462.098C1834.1 466.898 1832.75 470.354 1831.41 472.466L1829.39 475.922L1795.41 475.922L1795.41 458.642L1812.69 454.898C1813.84 453.746 1814.42 450.578 1814.42 445.394C1814.42 440.21 1813.65 435.218 1812.11 430.418C1810.77 425.618 1809.04 421.874 1806.93 419.186C1802.32 413.81 1797.62 409.97 1792.82 407.666L1711.89 407.666L1702.38 432.146L1690 432.146ZM1753.07 535.7C1736.56 535.7 1725.33 538.196 1719.38 543.188C1713.42 548.18 1710.45 555.764 1710.45 565.94C1710.45 576.116 1711.98 584.468 1715.06 590.996L1700.66 596.756C1699.7 595.988 1698.45 594.836 1696.91 593.3C1695.38 591.956 1693.26 588.404 1690.58 582.644C1688.08 576.884 1686.83 570.548 1686.83 563.636C1686.83 546.164 1691.73 532.628 1701.52 523.028C1711.5 513.428 1726 508.628 1745.01 508.628L1811.25 508.628L1811.25 493.364L1828.24 493.364L1855.89 521.012L1855.89 535.7L1834 535.7L1834 584.084L1811.25 584.084L1811.25 535.7L1753.07 535.7ZM1690 735.342L1690 612.942L1709.58 612.942L1810.67 701.07L1810.67 637.422L1793.97 631.95L1793.97 615.534L1833.42 615.534L1833.42 731.31L1810.67 731.31L1713.62 647.502L1713.62 714.894L1730.9 720.366L1730.9 735.342L1690 735.342ZM1690 837.159L1690 761.415L1702.38 761.415L1711.89 785.607L1814.7 785.607L1814.7 761.415L1831.98 761.415C1835.63 768.903 1837.46 777.543 1837.46 787.335C1837.46 797.319 1835.06 804.039 1830.26 807.495C1825.65 810.951 1818.54 812.679 1808.94 812.679L1711.89 812.679L1702.38 837.159L1690 837.159ZM1870.58 813.831C1866.16 809.415 1863.95 804.039 1863.95 797.703C1863.95 791.367 1866.16 785.991 1870.58 781.575C1874.99 777.159 1880.37 774.951 1886.7 774.951C1893.04 774.951 1898.42 777.159 1902.83 781.575C1907.25 785.991 1909.46 791.367 1909.46 797.703C1909.46 804.039 1907.25 809.415 1902.83 813.831C1898.42 818.247 1893.04 820.455 1886.7 820.455C1880.37 820.455 1874.99 818.247 1870.58 813.831ZM1687.12 931.344C1687.12 909.648 1693.26 891.984 1705.55 878.352C1718.03 864.912 1736.18 858.192 1759.98 858.192C1783.79 858.192 1802.61 865.104 1816.43 878.928C1830.45 892.752 1837.46 908.88 1837.46 927.312C1837.46 971.088 1811.54 992.976 1759.7 992.976L1759.7 886.128L1758.26 886.128C1744.62 886.128 1733.1 890.928 1723.7 900.528C1714.29 910.128 1709.58 923.184 1709.58 939.696C1709.58 946.8 1710.35 953.52 1711.89 959.856C1713.62 966.192 1715.34 970.8 1717.07 973.68L1719.38 977.712L1704.4 986.064C1704.02 985.488 1703.34 984.624 1702.38 983.472C1701.62 982.512 1700.27 980.304 1698.35 976.848C1696.43 973.392 1694.7 969.648 1693.17 965.616C1689.14 955.44 1687.12 944.016 1687.12 931.344ZM1778.13 966.192C1790.03 965.232 1799.06 961.296 1805.2 954.384C1811.54 947.664 1814.7 938.832 1814.7 927.888C1814.7 917.136 1811.63 908.208 1805.49 901.104C1799.54 894 1790.42 889.392 1778.13 887.28L1778.13 966.192ZM1691.73 1053.94C1688.46 1050.68 1686.83 1046.65 1686.83 1041.85C1686.83 1037.05 1688.46 1033.01 1691.73 1029.75C1694.99 1026.49 1699.02 1024.85 1703.82 1024.85C1708.62 1024.85 1712.66 1026.49 1715.92 1029.75C1719.18 1033.01 1720.82 1037.05 1720.82 1041.85C1720.82 1046.65 1719.18 1050.68 1715.92 1053.94C1712.66 1057.21 1708.62 1058.84 1703.82 1058.84C1699.02 1058.84 1694.99 1057.21 1691.73 1053.94Z" fill="white"/>
<defs>
<filter id="filter0_f_837_15" x="1170" y="281" width="1120" height="781.405" filterUnits="userSpaceOnUse" color-interpolation-filters="sRGB">
<feFlood flood-opacity="0" result="BackgroundImageFix"/>
<feBlend mode="normal" in="SourceGraphic" in2="BackgroundImageFix" result="shape"/>
<feGaussianBlur stdDeviation="100" result="effect1_foregroundBlur_837_15"/>
</filter>
<filter id="filter1_f_837_15" x="-419" y="-288" width="885" height="885" filterUnits="userSpaceOnUse" color-interpolation-filters="sRGB">
<feFlood flood-opacity="0" result="BackgroundImageFix"/>
<feBlend mode="normal" in="SourceGraphic" in2="BackgroundImageFix" result="shape"/>
<feGaussianBlur stdDeviation="100" result="effect1_foregroundBlur_837_15"/>
</filter>
<filter id="filter2_f_837_15" x="662" y="707" width="699" height="699" filterUnits="userSpaceOnUse" color-interpolation-filters="sRGB">
<feFlood flood-opacity="0" result="BackgroundImageFix"/>
<feBlend mode="normal" in="SourceGraphic" in2="BackgroundImageFix" result="shape"/>
<feGaussianBlur stdDeviation="100" result="effect1_foregroundBlur_837_15"/>
</filter>
</defs>
</svg>
