<svg width="853" height="249" viewBox="0 0 853 249" fill="none" xmlns="http://www.w3.org/2000/svg">
<path d="M34.848 56H14.472V52.832L21.024 50.456V10.64H8.352L5.976 16.832H1.512V5.16797H48.312V16.832H43.848L41.472 10.64H28.296V50.456L34.848 52.832V56ZM94.9956 56H76.0596V52.904L81.8196 50.528V33.32C81.8196 30.488 81.3396 28.376 80.3796 26.984C79.4676 25.592 77.7876 24.896 75.3396 24.896C70.9236 24.896 67.3956 26.216 64.7556 28.856V50.528L70.8756 52.904V56H51.9396V52.904L57.9876 50.528V6.10397H51.9396V1.78397C53.8116 0.871968 55.9716 0.415968 58.4196 0.415968C60.9156 0.415968 62.5956 1.01597 63.4596 2.21597C64.3236 3.36797 64.7556 5.14397 64.7556 7.54397V24.752C65.7636 23.312 67.5396 22.016 70.0836 20.864C72.6756 19.712 75.0996 19.136 77.3556 19.136C81.0996 19.136 83.9076 20.192 85.7796 22.304C87.6516 24.368 88.5876 27.2 88.5876 30.8V50.528L94.9956 52.904V56ZM117.789 56.72C112.365 56.72 107.949 55.184 104.541 52.112C101.181 48.992 99.5012 44.456 99.5012 38.504C99.5012 32.552 101.229 27.848 104.685 24.392C108.141 20.888 112.173 19.136 116.781 19.136C127.725 19.136 133.197 25.616 133.197 38.576H106.485V38.936C106.485 42.344 107.685 45.224 110.085 47.576C112.485 49.928 115.749 51.104 119.877 51.104C121.653 51.104 123.333 50.912 124.917 50.528C126.501 50.096 127.653 49.664 128.373 49.232L129.381 48.656L131.469 52.4C131.325 52.496 131.109 52.664 130.821 52.904C130.581 53.096 130.029 53.432 129.165 53.912C128.301 54.392 127.365 54.824 126.357 55.208C123.813 56.216 120.957 56.72 117.789 56.72ZM126.501 33.968C126.261 30.992 125.277 28.736 123.549 27.2C121.869 25.616 119.661 24.824 116.925 24.824C114.237 24.824 112.005 25.592 110.229 27.128C108.453 28.616 107.301 30.896 106.773 33.968H126.501ZM176.907 56H157.971V52.904L164.019 50.528V6.10397H157.971V1.78397C159.843 0.871968 162.003 0.415968 164.451 0.415968C166.947 0.415968 168.627 1.01597 169.491 2.21597C170.355 3.36797 170.787 5.14397 170.787 7.54397V50.528L176.907 52.904V56ZM217.969 51.104V55.424C216.097 56.336 214.033 56.792 211.777 56.792C209.521 56.792 207.889 56.36 206.881 55.496C205.921 54.632 205.369 53.384 205.225 51.752C202.585 55.112 199.105 56.792 194.785 56.792C190.513 56.792 187.273 55.928 185.065 54.2C182.857 52.472 181.753 50.048 181.753 46.928C181.753 40.928 185.929 37.472 194.281 36.56L205.153 35.408V33.32C205.153 30.536 204.577 28.424 203.425 26.984C202.273 25.544 200.449 24.824 197.953 24.824C193.345 24.824 189.601 25.328 186.721 26.336L185.281 26.84L183.985 22.232C185.329 21.464 187.369 20.768 190.105 20.144C192.841 19.472 195.385 19.136 197.737 19.136C202.873 19.136 206.521 20.168 208.681 22.232C210.841 24.248 211.921 27.104 211.921 30.8V51.104H217.969ZM194.641 41.24C192.817 41.48 191.353 42.032 190.249 42.896C189.193 43.76 188.665 44.936 188.665 46.424C188.665 47.864 189.241 49.016 190.393 49.88C191.593 50.696 193.249 51.104 195.361 51.104C199.345 51.104 202.609 50.024 205.153 47.864V40.088L194.641 41.24ZM241.263 56H222.327V52.904L228.375 50.528V24.824H222.327V20.504C224.199 19.592 226.311 19.136 228.663 19.136C231.015 19.136 232.647 19.64 233.559 20.648C234.471 21.656 234.975 23.144 235.071 25.112C235.551 23.672 236.535 22.376 238.023 21.224C239.799 19.832 242.151 19.136 245.079 19.136C246.375 19.136 247.599 19.304 248.751 19.64C249.951 19.976 250.815 20.312 251.343 20.648L252.207 21.152V29.648H247.887L246.951 25.328C246.663 25.04 245.871 24.896 244.575 24.896C243.279 24.896 242.031 25.088 240.831 25.472C239.631 25.808 238.695 26.24 238.023 26.768C236.679 27.92 235.719 29.096 235.143 30.296V50.528L241.263 52.904V56ZM289.271 32.744C289.271 36.776 287.711 40.016 284.591 42.464C281.519 44.912 277.799 46.136 273.431 46.136C271.031 46.136 268.751 45.728 266.591 44.912L263.279 50.888H277.247C282.383 50.888 286.103 51.872 288.407 53.84C290.711 55.808 291.863 58.688 291.863 62.48C291.863 66.272 290.207 69.488 286.895 72.128C283.583 74.768 278.951 76.088 272.999 76.088C267.047 76.088 262.535 74.936 259.463 72.632C256.391 70.328 254.855 67.4 254.855 63.848C254.855 60.344 256.583 57.824 260.039 56.288C258.023 55.616 257.015 54.176 257.015 51.968L257.303 50.168C260.039 45.992 261.695 43.424 262.271 42.464C259.151 39.968 257.591 36.728 257.591 32.744C257.591 28.712 259.151 25.448 262.271 22.952C265.391 20.408 269.111 19.136 273.431 19.136C276.167 19.136 278.807 19.712 281.351 20.864L293.951 19.208L293.735 25.472L286.463 24.824C288.335 27.08 289.271 29.72 289.271 32.744ZM261.191 63.128C261.191 65.336 262.199 67.088 264.215 68.384C266.279 69.728 269.159 70.4 272.855 70.4C276.551 70.4 279.479 69.704 281.639 68.312C283.847 66.92 284.951 65 284.951 62.552C284.951 58.616 282.431 56.648 277.391 56.648L264.575 56.72C262.319 57.968 261.191 60.104 261.191 63.128ZM273.431 40.736C276.407 40.736 278.735 39.944 280.415 38.36C282.095 36.776 282.935 34.88 282.935 32.672C282.935 30.464 282.095 28.544 280.415 26.912C278.735 25.28 276.383 24.464 273.359 24.464C270.383 24.464 268.079 25.28 266.447 26.912C264.815 28.496 263.999 30.416 263.999 32.672C263.999 34.88 264.815 36.776 266.447 38.36C268.127 39.944 270.455 40.736 273.431 40.736ZM317.125 56.72C311.701 56.72 307.285 55.184 303.877 52.112C300.517 48.992 298.837 44.456 298.837 38.504C298.837 32.552 300.565 27.848 304.021 24.392C307.477 20.888 311.509 19.136 316.117 19.136C327.061 19.136 332.533 25.616 332.533 38.576H305.821V38.936C305.821 42.344 307.021 45.224 309.421 47.576C311.821 49.928 315.085 51.104 319.213 51.104C320.989 51.104 322.669 50.912 324.253 50.528C325.837 50.096 326.989 49.664 327.709 49.232L328.717 48.656L330.805 52.4C330.661 52.496 330.445 52.664 330.157 52.904C329.917 53.096 329.365 53.432 328.501 53.912C327.637 54.392 326.701 54.824 325.693 55.208C323.149 56.216 320.293 56.72 317.125 56.72ZM325.837 33.968C325.597 30.992 324.613 28.736 322.885 27.2C321.205 25.616 318.997 24.824 316.261 24.824C313.573 24.824 311.341 25.592 309.565 27.128C307.789 28.616 306.637 30.896 306.109 33.968H325.837ZM365.271 30.296H360.735L359.727 26.696C358.479 25.496 356.559 24.896 353.967 24.896C351.375 24.896 349.359 25.232 347.919 25.904C346.527 26.576 345.831 27.488 345.831 28.64C345.831 29.744 346.359 30.8 347.415 31.808C348.471 32.768 349.551 33.488 350.655 33.968C351.759 34.448 353.727 35.168 356.559 36.128C359.391 37.088 361.695 38.36 363.471 39.944C365.295 41.528 366.207 43.616 366.207 46.208C366.207 49.664 364.935 52.304 362.391 54.128C359.895 55.904 357.015 56.792 353.751 56.792C350.535 56.792 347.751 56.384 345.399 55.568C343.095 54.752 341.439 53.936 340.431 53.12L338.991 51.896V44.192H343.311L344.823 48.656C344.871 48.8 345.255 49.04 345.975 49.376C348.231 50.528 350.487 51.104 352.743 51.104C354.999 51.104 356.727 50.768 357.927 50.096C359.127 49.376 359.727 48.392 359.727 47.144C359.727 45.848 359.055 44.624 357.711 43.472C356.367 42.32 354.111 41.288 350.943 40.376C347.823 39.416 345.183 38.048 343.023 36.272C340.911 34.448 339.855 32.336 339.855 29.936C339.855 26.336 341.103 23.648 343.599 21.872C346.143 20.048 349.407 19.136 353.391 19.136C355.359 19.136 357.327 19.376 359.295 19.856C361.263 20.336 362.751 20.816 363.759 21.296L365.271 22.016V30.296ZM383.237 40.232C383.237 44.36 383.861 47.168 385.109 48.656C386.357 50.144 388.253 50.888 390.797 50.888C393.341 50.888 395.429 50.504 397.061 49.736L398.501 53.336C398.309 53.576 398.021 53.888 397.637 54.272C397.301 54.656 396.413 55.184 394.973 55.856C393.533 56.48 391.949 56.792 390.221 56.792C385.853 56.792 382.469 55.568 380.069 53.12C377.669 50.624 376.469 47 376.469 42.248V25.688H372.653V21.44L379.565 14.528H383.237V20H395.333V25.688H383.237V40.232ZM466.512 56H459.888L436.488 15.896V50.456L441.456 52.832V56H422.664V52.832L429.216 50.456V10.712L422.664 8.33597V5.16797H437.424L459.24 42.752V10.712L454.272 8.33597V5.16797H473.064V8.33597L466.512 10.712V56ZM500.136 56H479.76V52.112L486.312 49.736V10.712L479.76 8.33597V5.16797H520.512V16.832H516.768L514.392 10.64H493.584V27.776H510.144L511.512 23.6H514.824V37.784H511.512L510.144 32.96H493.584V49.736L500.136 52.112V56ZM558.043 56H537.667V52.832L544.219 50.456V10.64H531.547L529.171 16.832H524.707V5.16797H571.507V16.832H567.043L564.667 10.64H551.491V50.456L558.043 52.832V56ZM661.779 56H642.843V52.904L648.603 50.528V33.32C648.603 30.488 648.123 28.376 647.163 26.984C646.251 25.592 644.571 24.896 642.123 24.896C638.283 24.896 634.995 26.264 632.259 29C632.403 29.576 632.475 30.176 632.475 30.8V50.528L638.883 52.904V56H619.947V52.904L625.707 50.528V33.32C625.707 30.488 625.227 28.376 624.267 26.984C623.355 25.592 621.675 24.896 619.227 24.896C615.291 24.896 611.763 26.456 608.643 29.576V50.528L614.763 52.904V56H595.827V52.904L601.875 50.528V24.824H595.827V20.504C597.699 19.592 599.835 19.136 602.235 19.136C604.635 19.136 606.267 19.664 607.131 20.72C608.043 21.776 608.547 23.36 608.643 25.472C609.315 24.608 610.323 23.624 611.667 22.52C614.499 20.264 617.691 19.136 621.243 19.136C626.523 19.136 629.979 21.248 631.611 25.472C635.115 21.248 639.291 19.136 644.139 19.136C647.883 19.136 650.691 20.192 652.563 22.304C654.435 24.368 655.371 27.2 655.371 30.8V50.528L661.779 52.904V56ZM701.93 51.104V55.424C700.058 56.336 697.994 56.792 695.738 56.792C693.482 56.792 691.85 56.36 690.842 55.496C689.882 54.632 689.33 53.384 689.186 51.752C686.546 55.112 683.066 56.792 678.746 56.792C674.474 56.792 671.234 55.928 669.026 54.2C666.818 52.472 665.714 50.048 665.714 46.928C665.714 40.928 669.89 37.472 678.242 36.56L689.114 35.408V33.32C689.114 30.536 688.538 28.424 687.386 26.984C686.234 25.544 684.41 24.824 681.914 24.824C677.306 24.824 673.562 25.328 670.682 26.336L669.242 26.84L667.946 22.232C669.29 21.464 671.33 20.768 674.066 20.144C676.802 19.472 679.346 19.136 681.698 19.136C686.834 19.136 690.482 20.168 692.642 22.232C694.802 24.248 695.882 27.104 695.882 30.8V51.104H701.93ZM678.602 41.24C676.778 41.48 675.314 42.032 674.21 42.896C673.154 43.76 672.626 44.936 672.626 46.424C672.626 47.864 673.202 49.016 674.354 49.88C675.554 50.696 677.21 51.104 679.322 51.104C683.306 51.104 686.57 50.024 689.114 47.864V40.088L678.602 41.24ZM725.224 56H706.288V52.904L712.336 50.528V24.824H706.288V20.504C708.16 19.592 710.272 19.136 712.624 19.136C714.976 19.136 716.608 19.64 717.52 20.648C718.432 21.656 718.936 23.144 719.032 25.112C719.512 23.672 720.496 22.376 721.984 21.224C723.76 19.832 726.112 19.136 729.04 19.136C730.336 19.136 731.56 19.304 732.712 19.64C733.912 19.976 734.776 20.312 735.304 20.648L736.168 21.152V29.648H731.848L730.912 25.328C730.624 25.04 729.832 24.896 728.536 24.896C727.24 24.896 725.992 25.088 724.792 25.472C723.592 25.808 722.656 26.24 721.984 26.768C720.64 27.92 719.68 29.096 719.104 30.296V50.528L725.224 52.904V56ZM783.368 56H766.088V52.904L769.832 51.536L752.696 34.688L766.016 23.816L760.904 23.096V20H778.976V23.096L773.576 24.464L760.904 34.688L777.968 51.536L783.368 52.904V56ZM758.672 56H739.736V52.904L745.784 50.528V6.10397H739.736V1.78397C741.608 0.871968 743.768 0.415968 746.216 0.415968C748.712 0.415968 750.392 1.01597 751.256 2.21597C752.12 3.36797 752.552 5.14397 752.552 7.54397V50.528L758.672 52.904V56ZM805.164 56.72C799.74 56.72 795.324 55.184 791.916 52.112C788.556 48.992 786.876 44.456 786.876 38.504C786.876 32.552 788.604 27.848 792.06 24.392C795.516 20.888 799.548 19.136 804.156 19.136C815.1 19.136 820.572 25.616 820.572 38.576H793.86V38.936C793.86 42.344 795.06 45.224 797.46 47.576C799.86 49.928 803.124 51.104 807.252 51.104C809.028 51.104 810.708 50.912 812.292 50.528C813.876 50.096 815.028 49.664 815.748 49.232L816.756 48.656L818.844 52.4C818.7 52.496 818.484 52.664 818.196 52.904C817.956 53.096 817.404 53.432 816.54 53.912C815.676 54.392 814.74 54.824 813.732 55.208C811.188 56.216 808.332 56.72 805.164 56.72ZM813.876 33.968C813.636 30.992 812.652 28.736 810.924 27.2C809.244 25.616 807.036 24.824 804.3 24.824C801.612 24.824 799.38 25.592 797.604 27.128C795.828 28.616 794.676 30.896 794.148 33.968H813.876ZM836.894 40.232C836.894 44.36 837.518 47.168 838.766 48.656C840.014 50.144 841.91 50.888 844.454 50.888C846.998 50.888 849.086 50.504 850.718 49.736L852.158 53.336C851.966 53.576 851.678 53.888 851.294 54.272C850.958 54.656 850.07 55.184 848.63 55.856C847.19 56.48 845.606 56.792 843.878 56.792C839.51 56.792 836.126 55.568 833.726 53.12C831.326 50.624 830.126 47 830.126 42.248V25.688H826.31V21.44L833.222 14.528H836.894V20H848.99V25.688H836.894V40.232ZM0.216 116.072H18.576V119.24L13.68 120.968L21.384 145.232L28.8 120.968L23.904 119.24V116.072H42.264V119.24L36.576 121.112L44.28 145.16L51.696 120.968L46.8 119.24V116.072H64.8V119.24L59.04 121.112L47.88 152H40.68L32.544 127.952L24.984 152H17.784L5.976 121.112L0.216 119.24V116.072ZM87.3523 152H68.4163V148.904L74.4643 146.528V120.824H68.4163V116.504C70.2883 115.592 72.4483 115.136 74.8963 115.136C77.3923 115.136 79.0723 115.736 79.9363 116.936C80.8003 118.088 81.2323 119.864 81.2323 122.264V146.528L87.3523 148.904V152ZM81.5203 106.856C80.4163 107.96 79.0723 108.512 77.4883 108.512C75.9043 108.512 74.5603 107.96 73.4563 106.856C72.3523 105.752 71.8003 104.408 71.8003 102.824C71.8003 101.24 72.3523 99.896 73.4563 98.792C74.5603 97.688 75.9043 97.136 77.4883 97.136C79.0723 97.136 80.4163 97.688 81.5203 98.792C82.6243 99.896 83.1763 101.24 83.1763 102.824C83.1763 104.408 82.6243 105.752 81.5203 106.856ZM102.691 136.232C102.691 140.36 103.315 143.168 104.563 144.656C105.811 146.144 107.707 146.888 110.251 146.888C112.795 146.888 114.883 146.504 116.515 145.736L117.955 149.336C117.763 149.576 117.475 149.888 117.091 150.272C116.755 150.656 115.867 151.184 114.427 151.856C112.987 152.48 111.403 152.792 109.675 152.792C105.307 152.792 101.923 151.568 99.5226 149.12C97.1226 146.624 95.9226 143 95.9226 138.248V121.688H92.1066V117.44L99.0186 110.528H102.691V116H114.787V121.688H102.691V136.232ZM163.761 152H144.825V148.904L150.585 146.528V129.32C150.585 126.488 150.105 124.376 149.145 122.984C148.233 121.592 146.553 120.896 144.105 120.896C139.689 120.896 136.161 122.216 133.521 124.856V146.528L139.641 148.904V152H120.705V148.904L126.753 146.528V102.104H120.705V97.784C122.577 96.872 124.737 96.416 127.185 96.416C129.681 96.416 131.361 97.016 132.225 98.216C133.089 99.368 133.521 101.144 133.521 103.544V120.752C134.529 119.312 136.305 118.016 138.849 116.864C141.441 115.712 143.865 115.136 146.121 115.136C149.865 115.136 152.673 116.192 154.545 118.304C156.417 120.368 157.353 123.2 157.353 126.8V146.528L163.761 148.904V152ZM206.383 152.72C200.959 152.72 196.543 151.184 193.135 148.112C189.775 144.992 188.095 140.456 188.095 134.504C188.095 128.552 189.823 123.848 193.279 120.392C196.735 116.888 200.767 115.136 205.375 115.136C216.319 115.136 221.791 121.616 221.791 134.576H195.079V134.936C195.079 138.344 196.279 141.224 198.679 143.576C201.079 145.928 204.343 147.104 208.471 147.104C210.247 147.104 211.927 146.912 213.511 146.528C215.095 146.096 216.247 145.664 216.967 145.232L217.975 144.656L220.063 148.4C219.919 148.496 219.703 148.664 219.415 148.904C219.175 149.096 218.623 149.432 217.759 149.912C216.895 150.392 215.959 150.824 214.951 151.208C212.407 152.216 209.551 152.72 206.383 152.72ZM215.095 129.968C214.855 126.992 213.871 124.736 212.143 123.2C210.463 121.616 208.255 120.824 205.519 120.824C202.831 120.824 200.599 121.592 198.823 123.128C197.047 124.616 195.895 126.896 195.367 129.968H215.095ZM266.787 152.144H248.787V148.976L253.683 147.248L245.835 137.168L238.707 147.248L243.603 148.976V152.144H225.603V148.976L231.363 147.104L241.803 134.216L231.363 121.184L225.603 119.312V116.144H243.603V119.312L238.707 121.04L246.051 130.904L253.683 121.04L248.787 119.312V116.144H266.787V119.312L261.027 121.184L250.083 134.576L261.027 147.104L266.787 148.976V152.144ZM290.123 152.72C284.795 152.72 280.403 151.16 276.947 148.04C273.539 144.92 271.835 140.408 271.835 134.504C271.835 131.24 272.483 128.336 273.779 125.792C275.075 123.2 276.779 121.16 278.891 119.672C283.259 116.648 288.035 115.136 293.219 115.136C294.803 115.136 296.363 115.328 297.899 115.712C299.435 116.096 300.587 116.48 301.355 116.864L302.507 117.512V126.008H298.115L297.107 121.616C296.435 121.088 295.139 120.824 293.219 120.824C289.091 120.824 285.659 122.072 282.923 124.568C280.187 127.064 278.819 130.208 278.819 134C278.819 137.792 279.995 140.936 282.347 143.432C284.747 145.88 287.915 147.104 291.851 147.104C293.771 147.104 295.547 146.912 297.179 146.528C298.859 146.096 300.035 145.664 300.707 145.232L301.715 144.656L303.803 148.4C303.659 148.496 303.443 148.664 303.155 148.904C302.915 149.096 302.363 149.432 301.499 149.912C300.635 150.392 299.723 150.824 298.763 151.208C296.171 152.216 293.291 152.72 290.123 152.72ZM327.883 152.72C322.459 152.72 318.043 151.184 314.635 148.112C311.275 144.992 309.595 140.456 309.595 134.504C309.595 128.552 311.323 123.848 314.779 120.392C318.235 116.888 322.267 115.136 326.875 115.136C337.819 115.136 343.291 121.616 343.291 134.576H316.579V134.936C316.579 138.344 317.779 141.224 320.179 143.576C322.579 145.928 325.843 147.104 329.971 147.104C331.747 147.104 333.427 146.912 335.011 146.528C336.595 146.096 337.747 145.664 338.467 145.232L339.475 144.656L341.563 148.4C341.419 148.496 341.203 148.664 340.915 148.904C340.675 149.096 340.123 149.432 339.259 149.912C338.395 150.392 337.459 150.824 336.451 151.208C333.907 152.216 331.051 152.72 327.883 152.72ZM336.595 129.968C336.355 126.992 335.371 124.736 333.643 123.2C331.963 121.616 329.755 120.824 327.019 120.824C324.331 120.824 322.099 121.592 320.323 123.128C318.547 124.616 317.395 126.896 316.867 129.968H336.595ZM367.1 171.512H348.164V168.416L354.284 166.04V120.536H348.236V116.576C350.108 115.664 352.148 115.208 354.356 115.208C356.612 115.208 358.22 115.616 359.18 116.432C360.14 117.248 360.716 118.448 360.908 120.032C363.26 116.768 366.764 115.136 371.42 115.136C375.212 115.136 378.716 116.432 381.932 119.024C383.564 120.368 384.86 122.288 385.82 124.784C386.828 127.232 387.332 130.088 387.332 133.352C387.332 136.616 386.78 139.544 385.676 142.136C384.572 144.68 383.084 146.696 381.212 148.184C377.42 151.208 373.004 152.72 367.964 152.72C365.948 152.72 363.644 152.384 361.052 151.712V166.04L367.1 168.416V171.512ZM367.964 147.032C371.852 147.032 374.876 145.88 377.036 143.576C379.244 141.272 380.348 138.056 380.348 133.928C380.348 129.8 379.292 126.584 377.18 124.28C375.068 121.928 372.812 120.752 370.412 120.752C366.236 120.752 363.116 122.072 361.052 124.712V145.736C363.74 146.6 366.044 147.032 367.964 147.032ZM404.191 136.232C404.191 140.36 404.815 143.168 406.063 144.656C407.311 146.144 409.207 146.888 411.751 146.888C414.295 146.888 416.383 146.504 418.015 145.736L419.455 149.336C419.263 149.576 418.975 149.888 418.591 150.272C418.255 150.656 417.367 151.184 415.927 151.856C414.487 152.48 412.903 152.792 411.175 152.792C406.807 152.792 403.423 151.568 401.023 149.12C398.623 146.624 397.423 143 397.423 138.248V121.688H393.607V117.44L400.519 110.528H404.191V116H416.287V121.688H404.191V136.232ZM442.149 152H423.213V148.904L429.261 146.528V120.824H423.213V116.504C425.085 115.592 427.245 115.136 429.693 115.136C432.189 115.136 433.869 115.736 434.733 116.936C435.597 118.088 436.029 119.864 436.029 122.264V146.528L442.149 148.904V152ZM436.317 106.856C435.213 107.96 433.869 108.512 432.285 108.512C430.701 108.512 429.357 107.96 428.253 106.856C427.149 105.752 426.597 104.408 426.597 102.824C426.597 101.24 427.149 99.896 428.253 98.792C429.357 97.688 430.701 97.136 432.285 97.136C433.869 97.136 435.213 97.688 436.317 98.792C437.421 99.896 437.973 101.24 437.973 102.824C437.973 104.408 437.421 105.752 436.317 106.856ZM479.087 147.608C475.583 151.064 471.167 152.792 465.839 152.792C460.511 152.792 456.095 151.064 452.591 147.608C449.087 144.104 447.335 139.568 447.335 134C447.335 128.432 449.087 123.896 452.591 120.392C456.095 116.888 460.511 115.136 465.839 115.136C471.167 115.136 475.583 116.888 479.087 120.392C482.591 123.896 484.343 128.432 484.343 134C484.343 139.568 482.591 144.104 479.087 147.608ZM457.559 143.648C459.719 145.952 462.479 147.104 465.839 147.104C469.199 147.104 471.959 145.952 474.119 143.648C476.279 141.296 477.359 138.152 477.359 134.216C477.359 130.28 476.255 127.064 474.047 124.568C471.887 122.072 469.151 120.824 465.839 120.824C462.527 120.824 459.767 122.072 457.559 124.568C455.399 127.064 454.319 130.28 454.319 134.216C454.319 138.152 455.399 141.296 457.559 143.648ZM533.696 152H514.76V148.904L520.52 146.528V129.32C520.52 126.488 520.04 124.376 519.08 122.984C518.168 121.592 516.488 120.896 514.04 120.896C510.104 120.896 506.576 122.456 503.456 125.576V146.528L509.576 148.904V152H490.64V148.904L496.688 146.528V120.824H490.64V116.504C492.512 115.592 494.648 115.136 497.048 115.136C499.448 115.136 501.08 115.664 501.944 116.72C502.856 117.776 503.36 119.36 503.456 121.472C504.128 120.608 505.136 119.624 506.48 118.52C509.312 116.264 512.552 115.136 516.2 115.136C519.848 115.136 522.608 116.192 524.48 118.304C526.352 120.368 527.288 123.2 527.288 126.8V146.528L533.696 148.904V152ZM573.891 147.104V151.424C572.019 152.336 569.955 152.792 567.699 152.792C565.443 152.792 563.811 152.36 562.803 151.496C561.843 150.632 561.291 149.384 561.147 147.752C558.507 151.112 555.027 152.792 550.707 152.792C546.435 152.792 543.195 151.928 540.987 150.2C538.779 148.472 537.675 146.048 537.675 142.928C537.675 136.928 541.851 133.472 550.203 132.56L561.075 131.408V129.32C561.075 126.536 560.499 124.424 559.347 122.984C558.195 121.544 556.371 120.824 553.875 120.824C549.267 120.824 545.523 121.328 542.643 122.336L541.203 122.84L539.907 118.232C541.251 117.464 543.291 116.768 546.027 116.144C548.763 115.472 551.307 115.136 553.659 115.136C558.795 115.136 562.443 116.168 564.603 118.232C566.763 120.248 567.843 123.104 567.843 126.8V147.104H573.891ZM550.563 137.24C548.739 137.48 547.275 138.032 546.171 138.896C545.115 139.76 544.587 140.936 544.587 142.424C544.587 143.864 545.163 145.016 546.315 145.88C547.515 146.696 549.171 147.104 551.283 147.104C555.267 147.104 558.531 146.024 561.075 143.864V136.088L550.563 137.24ZM596.321 152H577.385V148.904L583.433 146.528V102.104H577.385V97.784C579.257 96.872 581.417 96.416 583.865 96.416C586.361 96.416 588.041 97.016 588.905 98.216C589.769 99.368 590.201 101.144 590.201 103.544V146.528L596.321 148.904V152ZM640.22 152H621.284V148.904L627.332 146.528V120.824H621.284V116.504C623.156 115.592 625.316 115.136 627.764 115.136C630.26 115.136 631.94 115.736 632.804 116.936C633.668 118.088 634.1 119.864 634.1 122.264V146.528L640.22 148.904V152ZM634.388 106.856C633.284 107.96 631.94 108.512 630.356 108.512C628.772 108.512 627.428 107.96 626.324 106.856C625.22 105.752 624.668 104.408 624.668 102.824C624.668 101.24 625.22 99.896 626.324 98.792C627.428 97.688 628.772 97.136 630.356 97.136C631.94 97.136 633.284 97.688 634.388 98.792C635.492 99.896 636.044 101.24 636.044 102.824C636.044 104.408 635.492 105.752 634.388 106.856ZM655.558 136.232C655.558 140.36 656.182 143.168 657.43 144.656C658.678 146.144 660.574 146.888 663.118 146.888C665.662 146.888 667.75 146.504 669.382 145.736L670.822 149.336C670.63 149.576 670.342 149.888 669.958 150.272C669.622 150.656 668.734 151.184 667.294 151.856C665.854 152.48 664.27 152.792 662.542 152.792C658.174 152.792 654.79 151.568 652.39 149.12C649.99 146.624 648.79 143 648.79 138.248V121.688H644.974V117.44L651.886 110.528H655.558V116H667.654V121.688H655.558V136.232ZM693.156 152.72C687.732 152.72 683.316 151.184 679.908 148.112C676.548 144.992 674.868 140.456 674.868 134.504C674.868 128.552 676.596 123.848 680.052 120.392C683.508 116.888 687.54 115.136 692.148 115.136C703.092 115.136 708.564 121.616 708.564 134.576H681.852V134.936C681.852 138.344 683.052 141.224 685.452 143.576C687.852 145.928 691.116 147.104 695.244 147.104C697.02 147.104 698.7 146.912 700.284 146.528C701.868 146.096 703.02 145.664 703.74 145.232L704.748 144.656L706.836 148.4C706.692 148.496 706.476 148.664 706.188 148.904C705.948 149.096 705.396 149.432 704.532 149.912C703.668 150.392 702.732 150.824 701.724 151.208C699.18 152.216 696.324 152.72 693.156 152.72ZM701.868 129.968C701.628 126.992 700.644 124.736 698.916 123.2C697.236 121.616 695.028 120.824 692.292 120.824C689.604 120.824 687.372 121.592 685.596 123.128C683.82 124.616 682.668 126.896 682.14 129.968H701.868ZM780.326 152H761.39V148.904L767.15 146.528V129.32C767.15 126.488 766.67 124.376 765.71 122.984C764.798 121.592 763.118 120.896 760.67 120.896C756.83 120.896 753.542 122.264 750.806 125C750.95 125.576 751.022 126.176 751.022 126.8V146.528L757.43 148.904V152H738.494V148.904L744.254 146.528V129.32C744.254 126.488 743.774 124.376 742.814 122.984C741.902 121.592 740.222 120.896 737.774 120.896C733.838 120.896 730.31 122.456 727.19 125.576V146.528L733.31 148.904V152H714.374V148.904L720.422 146.528V120.824H714.374V116.504C716.246 115.592 718.382 115.136 720.782 115.136C723.182 115.136 724.814 115.664 725.678 116.72C726.59 117.776 727.094 119.36 727.19 121.472C727.862 120.608 728.87 119.624 730.214 118.52C733.046 116.264 736.238 115.136 739.79 115.136C745.07 115.136 748.526 117.248 750.158 121.472C753.662 117.248 757.838 115.136 762.686 115.136C766.43 115.136 769.238 116.192 771.11 118.304C772.982 120.368 773.918 123.2 773.918 126.8V146.528L780.326 148.904V152ZM811.333 126.296H806.797L805.789 122.696C804.541 121.496 802.621 120.896 800.029 120.896C797.437 120.896 795.421 121.232 793.981 121.904C792.589 122.576 791.893 123.488 791.893 124.64C791.893 125.744 792.421 126.8 793.477 127.808C794.533 128.768 795.613 129.488 796.717 129.968C797.821 130.448 799.789 131.168 802.621 132.128C805.453 133.088 807.757 134.36 809.533 135.944C811.357 137.528 812.269 139.616 812.269 142.208C812.269 145.664 810.997 148.304 808.453 150.128C805.957 151.904 803.077 152.792 799.813 152.792C796.597 152.792 793.813 152.384 791.461 151.568C789.157 150.752 787.501 149.936 786.493 149.12L785.053 147.896V140.192H789.373L790.885 144.656C790.933 144.8 791.317 145.04 792.037 145.376C794.293 146.528 796.549 147.104 798.805 147.104C801.061 147.104 802.789 146.768 803.989 146.096C805.189 145.376 805.789 144.392 805.789 143.144C805.789 141.848 805.117 140.624 803.773 139.472C802.429 138.32 800.173 137.288 797.005 136.376C793.885 135.416 791.245 134.048 789.085 132.272C786.973 130.448 785.917 128.336 785.917 125.936C785.917 122.336 787.165 119.648 789.661 117.872C792.205 116.048 795.469 115.136 799.453 115.136C801.421 115.136 803.389 115.376 805.357 115.856C807.325 116.336 808.813 116.816 809.821 117.296L811.333 118.016V126.296ZM35.064 243.608C31.56 247.064 27.144 248.792 21.816 248.792C16.488 248.792 12.072 247.064 8.568 243.608C5.064 240.104 3.312 235.568 3.312 230C3.312 224.432 5.064 219.896 8.568 216.392C12.072 212.888 16.488 211.136 21.816 211.136C27.144 211.136 31.56 212.888 35.064 216.392C38.568 219.896 40.32 224.432 40.32 230C40.32 235.568 38.568 240.104 35.064 243.608ZM13.536 239.648C15.696 241.952 18.456 243.104 21.816 243.104C25.176 243.104 27.936 241.952 30.096 239.648C32.256 237.296 33.336 234.152 33.336 230.216C33.336 226.28 32.232 223.064 30.024 220.568C27.864 218.072 25.128 216.824 21.816 216.824C18.504 216.824 15.744 218.072 13.536 220.568C11.376 223.064 10.296 226.28 10.296 230.216C10.296 234.152 11.376 237.296 13.536 239.648ZM89.6721 248H70.7361V244.904L76.4961 242.528V225.32C76.4961 222.488 76.0161 220.376 75.0561 218.984C74.1441 217.592 72.4641 216.896 70.0161 216.896C66.0801 216.896 62.5521 218.456 59.4321 221.576V242.528L65.5521 244.904V248H46.6161V244.904L52.6641 242.528V216.824H46.6161V212.504C48.4881 211.592 50.6241 211.136 53.0241 211.136C55.4241 211.136 57.0561 211.664 57.9201 212.72C58.8321 213.776 59.3361 215.36 59.4321 217.472C60.1041 216.608 61.1121 215.624 62.4561 214.52C65.2881 212.264 68.5281 211.136 72.1761 211.136C75.8241 211.136 78.5841 212.192 80.4561 214.304C82.3281 216.368 83.2641 219.2 83.2641 222.8V242.528L89.6721 244.904V248ZM124.136 232.232C124.136 236.36 124.76 239.168 126.008 240.656C127.256 242.144 129.152 242.888 131.696 242.888C134.24 242.888 136.328 242.504 137.96 241.736L139.4 245.336C139.208 245.576 138.92 245.888 138.536 246.272C138.2 246.656 137.312 247.184 135.872 247.856C134.432 248.48 132.848 248.792 131.12 248.792C126.752 248.792 123.368 247.568 120.968 245.12C118.568 242.624 117.368 239 117.368 234.248V217.688H113.552V213.44L120.464 206.528H124.136V212H136.232V217.688H124.136V232.232ZM185.207 248H166.271V244.904L172.031 242.528V225.32C172.031 222.488 171.551 220.376 170.591 218.984C169.679 217.592 167.999 216.896 165.551 216.896C161.135 216.896 157.607 218.216 154.967 220.856V242.528L161.087 244.904V248H142.151V244.904L148.199 242.528V198.104H142.151V193.784C144.023 192.872 146.183 192.416 148.631 192.416C151.127 192.416 152.807 193.016 153.671 194.216C154.535 195.368 154.967 197.144 154.967 199.544V216.752C155.975 215.312 157.751 214.016 160.295 212.864C162.887 211.712 165.311 211.136 167.567 211.136C171.311 211.136 174.119 212.192 175.991 214.304C177.863 216.368 178.799 219.2 178.799 222.8V242.528L185.207 244.904V248ZM208 248.72C202.576 248.72 198.16 247.184 194.752 244.112C191.392 240.992 189.712 236.456 189.712 230.504C189.712 224.552 191.44 219.848 194.896 216.392C198.352 212.888 202.384 211.136 206.992 211.136C217.936 211.136 223.408 217.616 223.408 230.576H196.696V230.936C196.696 234.344 197.896 237.224 200.296 239.576C202.696 241.928 205.96 243.104 210.088 243.104C211.864 243.104 213.544 242.912 215.128 242.528C216.712 242.096 217.864 241.664 218.584 241.232L219.592 240.656L221.68 244.4C221.536 244.496 221.32 244.664 221.032 244.904C220.792 245.096 220.24 245.432 219.376 245.912C218.512 246.392 217.576 246.824 216.568 247.208C214.024 248.216 211.168 248.72 208 248.72ZM216.712 225.968C216.472 222.992 215.488 220.736 213.76 219.2C212.08 217.616 209.872 216.824 207.136 216.824C204.448 216.824 202.216 217.592 200.44 219.128C198.664 220.616 197.512 222.896 196.984 225.968H216.712ZM251.998 198.104H245.95V193.784C247.822 192.872 249.982 192.416 252.43 192.416C254.926 192.416 256.606 193.016 257.47 194.216C258.334 195.368 258.766 197.144 258.766 199.544V215.096C261.07 212.456 264.502 211.136 269.062 211.136C272.854 211.136 276.358 212.432 279.574 215.024C281.206 216.368 282.502 218.288 283.462 220.784C284.47 223.232 284.974 226.088 284.974 229.352C284.974 232.616 284.422 235.544 283.318 238.136C282.214 240.68 280.726 242.696 278.854 244.184C275.062 247.208 270.646 248.72 265.606 248.72C263.254 248.72 260.926 248.384 258.622 247.712C256.366 246.992 254.686 246.272 253.582 245.552L251.998 244.544V198.104ZM265.606 243.104C269.494 243.104 272.518 241.976 274.678 239.72C276.886 237.416 277.99 234.176 277.99 230C277.99 225.824 276.934 222.584 274.822 220.28C272.71 217.928 270.454 216.752 268.054 216.752C264.07 216.752 260.974 217.928 258.766 220.28V241.88L259.63 242.096C262.174 242.768 264.166 243.104 265.606 243.104ZM310.384 248H291.448V244.904L297.496 242.528V216.824H291.448V212.504C293.32 211.592 295.48 211.136 297.928 211.136C300.424 211.136 302.104 211.736 302.968 212.936C303.832 214.088 304.264 215.864 304.264 218.264V242.528L310.384 244.904V248ZM304.552 202.856C303.448 203.96 302.104 204.512 300.52 204.512C298.936 204.512 297.592 203.96 296.488 202.856C295.384 201.752 294.832 200.408 294.832 198.824C294.832 197.24 295.384 195.896 296.488 194.792C297.592 193.688 298.936 193.136 300.52 193.136C302.104 193.136 303.448 193.688 304.552 194.792C305.656 195.896 306.208 197.24 306.208 198.824C306.208 200.408 305.656 201.752 304.552 202.856ZM354.666 243.104V247.424C352.794 248.336 350.73 248.792 348.474 248.792C346.266 248.792 344.658 248.384 343.65 247.568C342.69 246.752 342.114 245.552 341.922 243.968C339.714 247.136 336.258 248.72 331.554 248.72C327.762 248.72 324.258 247.424 321.042 244.832C319.41 243.488 318.09 241.592 317.082 239.144C316.122 236.648 315.642 233.768 315.642 230.504C315.642 227.24 316.29 224.336 317.586 221.792C318.882 219.2 320.586 217.16 322.698 215.672C326.97 212.648 331.698 211.136 336.882 211.136C338.418 211.136 340.074 211.472 341.85 212.144V198.104H335.802V193.784C337.674 192.872 339.834 192.416 342.282 192.416C344.778 192.416 346.458 193.016 347.322 194.216C348.186 195.368 348.618 197.144 348.618 199.544V243.104H354.666ZM336.882 216.824C332.61 216.824 329.154 218 326.514 220.352C323.922 222.656 322.626 225.92 322.626 230.144C322.626 234.368 323.658 237.656 325.722 240.008C327.834 242.312 330.114 243.464 332.562 243.464C336.69 243.464 339.786 241.952 341.85 238.928V217.904C339.69 217.184 338.034 216.824 336.882 216.824Z" fill="#2E2F38"/>
</svg>
